PathFileType	4	(x/y/z)	S08_PSF_T05
DataRate	CameraRate	NumFrames	NumMarkers	Units	OrigDataRate	OrigDataStartFrame	OrigNumFrames
240	240	9	51	mm	240	210	418
Frame#	Time	Sternum			R.Acromium			L.Acromium			Top.Head			R.ASIS			L.ASIS			R.PSIS			L.PSIS			R.Great.Tro			L.Great.Tro			R.Iliac.Crest			L.Iliac.Crest			V.Sacral			R.Thigh.Upper.Post			R.Thigh.Lower.Ant			R.Thigh.Lower.Post			R.Thigh.Upper.Ant			R.Knee.Lat			R.Knee.Med			R.Shank.Upper.Post			R.Shank.Lower.Ant			R.Shank.Lower.Post			R.Shank.Upper.Ant			R.Ankle.Lat			R.Ankle.Med			R.Heel.Upper			R.Heel.Med			R.Heel.Lat			R.Toe.Lat			R.Toe.Med			R.Toe.Tip			L.Thigh.Upper.Post			L.Thigh.Lower.Ant			L.Thigh.Lower.Post			L.Thigh.Upper.Ant			L.Knee.Lat			L.Knee.Med			L.Shank.Upper.Post			L.Shank.Lower.Ant			L.Shank.Lower.Post			L.Shank.Upper.Ant			L.Ankle.Lat			L.Ankle.Med			L.Heel.Upper			L.Heel.Med			L.Heel.Lat			L.Toe.Lat			L.Toe.Med			L.Toe.Tip			Cervical.Spine			Back			
		X1	Y1	Z1	X2	Y2	Z2	X3	Y3	Z3	X4	Y4	Z4	X5	Y5	Z5	X6	Y6	Z6	X7	Y7	Z7	X8	Y8	Z8	X9	Y9	Z9	X10	Y10	Z10	X11	Y11	Z11	X12	Y12	Z12	X13	Y13	Z13	X14	Y14	Z14	X15	Y15	Z15	X16	Y16	Z16	X17	Y17	Z17	X18	Y18	Z18	X19	Y19	Z19	X20	Y20	Z20	X21	Y21	Z21	X22	Y22	Z22	X23	Y23	Z23	X24	Y24	Z24	X25	Y25	Z25	X26	Y26	Z26	X27	Y27	Z27	X28	Y28	Z28	X29	Y29	Z29	X30	Y30	Z30	X31	Y31	Z31	X32	Y32	Z32	X33	Y33	Z33	X34	Y34	Z34	X35	Y35	Z35	X36	Y36	Z36	X37	Y37	Z37	X38	Y38	Z38	X39	Y39	Z39	X40	Y40	Z40	X41	Y41	Z41	X42	Y42	Z42	X43	Y43	Z43	X44	Y44	Z44	X45	Y45	Z45	X46	Y46	Z46	X47	Y47	Z47	X48	Y48	Z48	X49	Y49	Z49	X50	Y50	Z50	X51	Y51	Z51	

210	0.87083	-222.66	1236.9	317.31	-332.54	1473	496.34	-348.8	1503.6	161.93	-324.52	1792.9	346.84	-246.1	1025.9	430.53	-242.44	1027.6	198.85	-446.84	1045	347.95	-441.76	1047.4	254.72	-317.58	917.29	496.5	-320.65	917.22	127.25	-344.26	1092.4	471.91	-337.86	1105.4	164.85	-459.57	1004.8	300.41	-348.03	719.16	475.88	-276.47	618.09	438.36	-345.96	630.33	454.41	-270.06	710.37	462.79	-318.34	520.92	425.35	-344.09	529.96	300.18	-401.86	341.07	423.14	-344.73	275.98	400.03	-408.37	265.3	411.18	-338.4	352.37	413.2	-418.72	97.961	366.5	-387.41	117.95	289.99	-464.54	66.174	314.42	-451.76	40.502	287.79	-460.6	42.562	349.11	NaN	NaN	NaN	-266.87	46.058	283.39	-202.82	62.754	332.33	-239.11	718.3	133.51	-122.3	672.23	150.71	-185.99	644.75	147.43	-171.45	745.43	131.58	-137.61	561.04	163.6	-124.63	554.85	289.08	-248.16	421.51	156.32	-218.03	314.25	166.88	-277.7	354.23	167.69	-193.15	386.08	156.61	-324.77	186.7	169.43	-295.49	178.8	251.53	-383.06	177.59	219.82	-381.85	140.29	248.6	-387.51	150.81	185.21	-230.51	76.966	142.28	-205.55	70.267	253.34	-142.62	67.064	202.79	-405.84	1532.4	326	-455.86	1249.6	333.72
211	0.875	-217.41	1236.6	317.51	-327.17	1472.8	496.44	-343.24	1503.4	162.01	-318.92	1792.7	346.86	-241.24	1025.6	430.72	-237.17	1027.5	199.04	-441.79	1044.8	347.68	-436.57	1047.3	254.46	-313.28	917.11	496.45	-314.99	917.27	127.08	-339.45	1092.2	471.85	-332.49	1105.3	164.81	-454.46	1004.6	300.1	-345.2	719.33	475.81	-274.34	617.7	438.37	-343.69	630.46	454.33	-267.3	709.99	462.88	-316.8	520.77	425.44	-342.22	529.93	300.19	-401.03	341.26	423.16	-344.1	276.03	400.16	-407.75	265.5	411.21	-337.52	352.36	413.33	-418.6	98.149	366.47	-387.06	118.06	289.94	-464.54	66.285	314.38	-451.66	40.536	287.83	-460.56	42.653	349.1	NaN	NaN	NaN	-266.83	46.012	283.38	-202.71	62.539	332.39	-232.73	718.63	133.56	-115.81	672.98	151.12	-179.37	645.29	147.59	-165.17	746.02	131.84	-130.63	561.58	164.05	-118.09	555.54	289.36	-238.4	419.24	156.49	-205.75	312.72	167.21	-266.34	351.27	167.92	-182.57	385.11	156.89	-309.38	182.54	169.63	-279.76	175.34	251.78	-367.42	171.84	220.02	-365.13	134.58	248.81	-371.1	144.86	185.46	-212.13	75.255	142.59	-186.98	69.349	253.69	-123.99	67.775	203.13	-400.32	1532.2	326.06	-450.63	1249.6	333.7
212	0.87917	-212.16	1236.3	317.7	-321.81	1472.5	496.54	-337.67	1503.1	162.08	-313.32	1792.5	346.87	-236.35	1025.3	430.88	-231.9	1027.3	199.2	-436.73	1044.6	347.41	-431.38	1047.1	254.19	-308.96	916.9	496.4	-309.36	917.27	126.92	-334.62	1091.9	471.79	-327.12	1105.1	164.77	-449.34	1004.5	299.8	-342.33	719.48	475.72	-272.17	617.3	438.38	-341.39	630.57	454.24	-264.53	709.59	462.96	-315.22	520.62	425.53	-340.32	529.88	300.19	-400.17	341.44	423.18	-343.44	276.07	400.26	-407.1	265.69	411.22	-336.6	352.35	413.44	-418.47	98.341	366.41	-386.69	118.17	289.88	-464.55	66.404	314.34	-451.56	40.559	287.86	-460.52	42.749	349.08	NaN	NaN	NaN	-266.77	45.958	283.37	-202.61	62.315	332.45	-226.47	718.88	133.63	-109.44	673.61	151.51	-172.89	645.73	147.77	-158.99	746.49	132.11	-123.79	562	164.49	-111.68	556.11	289.65	-228.69	416.9	156.69	-193.48	311.2	167.55	-254.97	348.27	168.19	-172.05	384.11	157.19	-293.88	178.43	169.87	-263.94	171.94	252.07	-351.63	166.14	220.26	-348.24	128.96	249.08	-354.54	138.98	185.75	-193.75	73.662	142.93	-168.41	68.571	254.08	-105.41	68.619	203.49	-394.79	1532	326.11	-445.39	1249.4	333.68
213	0.88333	-206.9	1235.9	317.88	-316.44	1472.3	496.62	-332.09	1502.8	162.15	-307.72	1792.2	346.87	-231.45	1024.9	431.01	-226.63	1027.1	199.35	-431.65	1044.4	347.15	-426.16	1046.9	253.94	-304.62	916.66	496.33	-303.76	917.22	126.77	-329.77	1091.6	471.72	-321.73	1105	164.72	-444.21	1004.3	299.5	-339.43	719.6	475.63	-269.95	616.9	438.38	-339.04	630.66	454.15	-261.72	709.17	463.01	-313.59	520.45	425.6	-338.39	529.82	300.18	-399.27	341.63	423.18	-342.76	276.09	400.35	-406.42	265.89	411.23	-335.65	352.32	413.53	-418.32	98.54	366.34	-386.32	118.28	289.81	-464.56	66.528	314.3	-451.46	40.572	287.9	-460.47	42.85	349.05	NaN	NaN	NaN	-266.68	45.895	283.36	-202.49	62.082	332.5	-220.31	719.05	133.74	-103.19	674.11	151.9	-166.54	646.07	147.97	-152.9	746.86	132.39	-117.09	562.32	164.93	-105.39	556.56	289.95	-219.01	414.5	156.92	-181.25	309.68	167.91	-243.61	345.25	168.49	-161.59	383.08	157.5	-278.29	174.38	170.14	-248.05	168.61	252.4	-335.71	160.5	220.55	-331.2	123.44	249.4	-337.85	133.2	186.1	-175.37	72.201	143.31	-149.83	67.944	254.5	-86.88	69.606	203.86	-389.26	1531.7	326.16	-440.14	1249.3	333.65
214	0.8875	-201.62	1235.5	318.07	-311.07	1472	496.7	-326.51	1502.5	162.22	-302.13	1791.8	346.86	-226.52	1024.5	431.13	-221.35	1026.9	199.47	-426.55	1044.1	346.89	-420.94	1046.7	253.69	-300.25	916.39	496.26	-298.2	917.11	126.63	-324.88	1091.2	471.64	-316.33	1104.8	164.67	-439.07	1004	299.22	-336.48	719.7	475.54	-267.69	616.48	438.37	-336.66	630.73	454.04	-258.89	708.74	463.03	-311.92	520.27	425.66	-336.43	529.75	300.16	-398.34	341.81	423.18	-342.04	276.1	400.42	-405.72	266.09	411.24	-334.67	352.28	413.6	-418.15	98.743	366.25	-385.94	118.38	289.72	-464.56	66.656	314.24	-451.36	40.576	287.93	-460.42	42.956	349.02	NaN	NaN	NaN	-266.57	45.824	283.36	-202.37	61.839	332.55	-214.27	719.13	133.86	-97.077	674.48	152.29	-160.34	646.3	148.17	-146.92	747.11	132.67	-110.52	562.52	165.36	-99.216	556.88	290.26	-209.36	412.04	157.19	-169.05	308.19	168.28	-232.24	342.21	168.81	-151.19	382.03	157.83	-262.62	170.41	170.45	-232.1	165.38	252.77	-319.65	154.95	220.88	-314.02	118.03	249.78	-321.03	127.52	186.5	-156.99	70.886	143.73	-131.27	67.479	254.94	-68.419	70.747	204.26	-383.73	1531.4	326.2	-434.88	1249.1	333.61
215	0.89167	-196.33	1235	318.24	-305.7	1471.6	496.78	-320.93	1502.2	162.29	-296.54	1791.5	346.83	-221.57	1024	431.23	-216.07	1026.6	199.58	-421.43	1043.8	346.64	-415.7	1046.4	253.44	-295.86	916.08	496.18	-292.67	916.93	126.5	-319.96	1090.9	471.56	-310.91	1104.5	164.62	-433.92	1003.7	298.94	-333.49	719.78	475.44	-265.38	616.04	438.36	-334.23	630.79	453.93	-256.01	708.28	463.04	-310.2	520.07	425.7	-334.44	529.66	300.13	-397.38	341.99	423.16	-341.31	276.09	400.47	-404.99	266.28	411.23	-333.65	352.23	413.65	-417.97	98.952	366.13	-385.57	118.48	289.62	-464.55	66.785	314.18	-451.26	40.574	287.96	-460.37	43.069	348.99	NaN	NaN	NaN	-266.44	45.742	283.35	-202.25	61.584	332.6	-208.34	719.12	134.01	-91.089	674.73	152.67	-154.27	646.42	148.39	-141.05	747.25	132.96	-104.1	562.62	165.8	-93.157	557.08	290.58	-199.75	409.54	157.49	-156.88	306.72	168.68	-220.89	339.17	169.17	-140.86	380.97	158.17	-246.88	166.53	170.8	-216.1	162.25	253.18	-303.47	149.5	221.24	-296.72	112.76	250.21	-304.09	121.97	186.96	-138.63	69.733	144.17	-112.72	67.185	255.42	-50.034	72.052	204.66	-378.2	1531.1	326.24	-429.61	1248.8	333.58
216	0.89583	-191.03	1234.5	318.41	-300.32	1471.2	496.84	-315.34	1501.8	162.35	-290.96	1791.1	346.8	-216.59	1023.5	431.32	-210.78	1026.3	199.67	-416.29	1043.4	346.4	-410.45	1046.1	253.2	-291.44	915.73	496.1	-287.18	916.7	126.38	-315.02	1090.4	471.48	-305.47	1104.3	164.56	-428.76	1003.4	298.67	-330.46	719.83	475.33	-263.02	615.6	438.34	-331.75	630.82	453.81	-253.1	707.8	463.02	-308.43	519.87	425.74	-332.42	529.56	300.08	-396.38	342.17	423.14	-340.54	276.07	400.5	-404.23	266.48	411.21	-332.6	352.16	413.68	-417.77	99.166	365.99	-385.21	118.57	289.5	-464.54	66.914	314.11	-451.16	40.566	287.98	-460.32	43.187	348.94	NaN	NaN	NaN	-266.29	45.65	283.35	-202.11	61.318	332.64	-202.52	719.01	134.18	-85.23	674.84	153.04	-148.34	646.41	148.62	-135.28	747.26	133.26	-97.807	562.6	166.23	-87.214	557.17	290.91	-190.17	406.99	157.83	-144.75	305.28	169.09	-209.54	336.12	169.56	-130.59	379.89	158.53	-231.07	162.75	171.18	-200.06	159.24	253.63	-287.19	144.16	221.65	-279.3	107.63	250.69	-287.04	116.56	187.47	-120.3	68.756	144.64	-94.211	67.074	255.91	-31.738	73.533	205.09	-372.67	1530.7	326.27	-424.33	1248.5	333.53
217	0.9	-185.72	1234	318.58	-294.93	1470.8	496.9	-309.75	1501.3	162.41	-285.38	1790.6	346.75	-211.59	1023	431.39	-205.48	1025.9	199.74	-411.14	1043.1	346.15	-405.18	1045.8	252.96	-286.99	915.36	496.01	-281.72	916.41	126.28	-310.03	1090	471.4	-300.02	1103.9	164.49	-423.58	1003.1	298.4	-327.37	719.86	475.23	-260.6	615.14	438.32	-329.23	630.83	453.68	-250.14	707.31	463	-306.62	519.64	425.76	-330.37	529.44	300.03	-395.36	342.34	423.1	-339.74	276.03	400.51	-403.45	266.67	411.18	-331.52	352.08	413.7	-417.55	99.385	365.83	-384.85	118.66	289.37	-464.52	67.041	314.03	-451.05	40.555	287.99	-460.26	43.311	348.89	NaN	NaN	NaN	-266.12	45.547	283.34	-201.97	61.04	332.68	-196.82	718.81	134.36	-79.5	674.81	153.4	-142.55	646.29	148.85	-129.62	747.16	133.55	-91.65	562.47	166.67	-81.384	557.13	291.25	-180.62	404.4	158.19	-132.67	303.89	169.52	-198.21	333.08	169.97	-120.39	378.8	158.91	-215.22	159.09	171.6	-183.99	156.36	254.12	-270.81	138.94	222.1	-261.8	102.67	251.22	-269.9	111.3	188.02	-102	67.968	145.13	-75.749	67.153	256.44	-13.543	75.197	205.53	-367.13	1530.3	326.29	-419.04	1248.2	333.48
218	0.90417	-180.4	1233.4	318.73	-289.54	1470.3	496.95	-304.16	1500.8	162.47	-279.81	1790.1	346.69	-206.57	1022.4	431.44	-200.17	1025.5	199.8	-405.96	1042.7	345.91	-399.9	1045.4	252.72	-282.51	914.95	495.92	-276.3	916.06	126.19	-305.02	1089.5	471.31	-294.54	1103.6	164.41	-418.39	1002.8	298.15	-324.24	719.86	475.13	-258.13	614.66	438.29	-326.65	630.82	453.56	-247.13	706.79	462.96	-304.76	519.41	425.77	-328.27	529.31	299.97	-394.29	342.51	423.05	-338.92	275.98	400.5	-402.65	266.87	411.14	-330.4	351.99	413.69	-417.32	99.61	365.65	-384.49	118.74	289.23	-464.48	67.166	313.93	-450.95	40.544	287.98	-460.2	43.441	348.83	NaN	NaN	NaN	-265.93	45.433	283.33	-201.83	60.749	332.71	-191.24	718.5	134.55	-73.9	674.66	153.75	-136.9	646.05	149.09	-124.07	746.93	133.84	-85.624	562.23	167.1	-75.666	556.98	291.61	-171.11	401.78	158.59	-120.64	302.53	169.97	-186.88	330.05	170.41	-110.26	377.71	159.31	-199.32	155.55	172.06	-167.92	153.62	254.66	-254.34	133.87	222.58	-244.21	97.879	251.79	-252.68	106.21	188.63	-83.745	67.381	145.66	-57.352	67.434	256.99	4.5379	77.054	205.99	-361.59	1529.8	326.31	-413.73	1247.8	333.43
